Coordinates
version=1
nRows=4
nColumns=63
inDegrees=yes

Units are S.I. units (second, meters, Newtons, ...)
If the header above contains a line with 'inDegrees', this indicates whether rotational values are in degrees (yes) or radians (no).

endheader
time	pelvis_tilt	pelvis_list	pelvis_rotation	pelvis_tx	pelvis_ty	pelvis_tz	hip_flexion_r	hip_adduction_r	hip_rotation_r	knee_angle_r	knee_angle_r_beta	ankle_angle_r	subtalar_angle_r	mtp_angle_r	hip_flexion_l	hip_adduction_l	hip_rotation_l	knee_angle_l	knee_angle_l_beta	ankle_angle_l	subtalar_angle_l	mtp_angle_l	L5_S1_Flex_Ext	L5_S1_Lat_Bending	L5_S1_axial_rotation	L4_L5_Flex_Ext	L4_L5_Lat_Bending	L4_L5_axial_rotation	L3_L4_Flex_Ext	L3_L4_Lat_Bending	L3_L4_axial_rotation	L2_L3_Flex_Ext	L2_L3_Lat_Bending	L2_L3_axial_rotation	L1_L2_Flex_Ext	L1_L2_Lat_Bending	L1_L2_axial_rotation	L1_T12_Flex_Ext	L1_T12_Lat_Bending	L1_T12_axial_rotation	Abs_r3	Abs_r2	Abs_r1	Abs_t1	Abs_t2	neck_flexion	neck_bending	neck_rotation	arm_flex_r	arm_add_r	arm_rot_r	elbow_flex_r	pro_sup_r	wrist_flex_r	wrist_dev_r	arm_flex_l	arm_add_l	arm_rot_l	elbow_flex_l	pro_sup_l	wrist_flex_l	wrist_dev_l
      1.08620690	      5.36941694	      3.48837126	     96.77760986	      0.14003004	      0.83451108	      0.85269547	     -1.21506007	      3.75520798	      2.61377205	      4.57723835	      0.07988788	     30.99167296	      4.77703349	      0.00000000	      0.66297911	     -1.97484777	      3.88814959	      9.91795219	      0.17310092	     29.79448185	     -2.14467065	      0.00000000	     -0.14502072	      0.15945753	     -0.07027099	     -0.26931798	      0.21207852	     -0.07466292	     -0.23825454	      0.38770504	     -0.07466292	     -0.16574418	      0.38770504	     -0.06148711	     -0.13466624	      0.32516580	     -0.05709518	     -0.08286484	      0.24699972	     -0.05270324	     -1.03586849	      1.80381548	     -0.39082614	      0.00000000	      0.00000000	      6.55495498	      4.57054537	     -8.80020935	     35.55613822	    -12.49736621	     19.09678170	    140.51411925	     89.15976629	     -7.44350455	     11.60913572	     14.03841254	    -11.95716579	    150.59168384	      2.84733771	      2.22537686	    -16.76825419	    -12.33743854
      1.10344828	      5.21816054	      3.44216281	     96.90045853	      0.13964427	      0.83468027	      0.85117297	     -1.35602579	      3.56621640	      2.63515169	      4.48061696	      0.07820152	     31.12189429	      4.72726101	      0.00000000	      0.61582163	     -1.80954851	      4.35941525	      9.81021451	      0.17122054	     30.16286243	     -1.98394117	      0.00000000	     -0.11659958	      0.15106614	     -0.01105406	     -0.21653708	      0.20091796	     -0.01174494	     -0.19156145	      0.36730221	     -0.01174494	     -0.13326166	      0.36730221	     -0.00967230	     -0.10827437	      0.30805407	     -0.00898142	     -0.06662500	      0.23400145	     -0.00829054	     -0.83285915	      1.70889037	     -0.06147936	      0.00000000	      0.00000000	      7.26157942	      4.25741931	     -8.41083817	     34.58386563	    -13.54975565	     18.34366859	    139.83002128	     89.10403304	     -7.33152691	     11.33749972	     14.08076216	    -11.87669524	    150.31524015	      2.86096888	      2.06535910	    -16.59347776	    -12.26706581
      1.12068966	      5.06573973	      3.44136700	     97.00093143	      0.13990758	      0.83522771	      0.85044044	     -1.53954419	      3.42612086	      2.77989116	      4.31285458	      0.07527351	     30.99219599	      4.51001267	      0.00000000	      0.52337235	     -1.62044793	      5.44210686	      9.58834281	      0.16734815	     29.99607718	     -2.88690992	      0.00000000	     -0.12369429	      0.12537341	      0.10796813	     -0.22971266	      0.16674663	      0.11471614	     -0.20321734	      0.30483291	      0.11471614	     -0.14137020	      0.30483291	      0.09447211	     -0.11486251	      0.25566145	      0.08772411	     -0.07067892	      0.19420341	      0.08097610	     -0.88353592	      1.41824907	      0.60048636	      0.00000000	      0.00000000	      8.27591184	      4.89118853	     -8.26599940	     32.96105968	    -14.42914774	     15.82725706	    138.25336278	     89.02727156	     -3.68292410	      7.33730609	     14.74560740	    -12.00478442	    147.87415139	      3.34288482	      1.95570363	    -14.15208900	    -12.26746253
      1.13793103	      4.81549736	      3.24147960	     97.12587486	      0.14019513	      0.83551421	      0.84944896	     -1.40783652	      3.14820745	      2.71282933	      4.45844951	      0.07781462	     31.00851309	      4.44471636	      0.00000000	      0.63651609	     -1.30569704	      6.56398722	      9.40849983	      0.16420930	     29.75017698	     -3.85931912	      0.00000000	     -0.09995281	      0.08152955	      0.18691296	     -0.18562237	      0.10843430	      0.19859502	     -0.16421248	      0.19823094	      0.19859502	     -0.11423607	      0.19823094	      0.16354884	     -0.09281618	      0.16625506	      0.15186678	     -0.05711304	      0.12628927	      0.14018472	     -0.71395294	      0.92227856	      1.03955381	      0.00000000	      0.00000000	      9.01321622	      5.91389490	     -7.62383614	     31.00535827	    -14.95123549	     12.91431726	    136.47443235	     88.89613883	     -0.57356907	      4.52953269	     15.12349834	    -12.28539676	    145.35726893	      3.75833421	      1.91690569	    -12.72853493	    -12.81086789
